<?xml version="1.0" standalone="no"?>
<!DOCTYPE svg PUBLIC "-//W3C//DTD SVG 20010904//EN"
 "http://www.w3.org/TR/2001/REC-SVG-20010904/DTD/svg10.dtd">
<svg version="1.0" xmlns="http://www.w3.org/2000/svg"
 width="512.000000pt" height="512.000000pt" viewBox="0 0 512.000000 512.000000"
 preserveAspectRatio="xMidYMid meet">

<g transform="translate(0.000000,512.000000) scale(0.100000,-0.100000)"
fill="#000000" stroke="none">
<path d="M824 5095 c-190 -41 -342 -184 -398 -374 -10 -36 -16 -93 -16 -167
l0 -112 -27 -7 c-41 -10 -88 -49 -107 -88 -48 -102 19 -219 133 -234 l38 -5 5
-127 c6 -143 24 -207 82 -293 l35 -53 -117 -6 c-142 -8 -171 -14 -242 -49 -75
-38 -137 -102 -174 -180 l-31 -65 1 -380 c1 -782 -2 -741 57 -811 27 -32 27
-33 27 -201 0 -118 4 -173 12 -181 7 -7 32 -12 56 -12 l44 0 -6 -102 c-3 -57
-18 -431 -32 -831 -25 -696 -25 -729 -9 -748 33 -36 89 -17 100 34 2 12 16
364 30 782 14 418 28 784 31 813 l5 52 625 0 c491 0 626 -3 629 -12 2 -7 16
-375 30 -818 14 -443 28 -815 30 -827 10 -46 83 -55 105 -14 7 14 2 250 -15
773 -14 414 -25 786 -25 826 l0 72 38 0 c69 0 72 11 72 222 0 193 1 198 42
198 16 0 5 -366 -36 -1299 -24 -518 -32 -780 -25 -792 21 -40 90 -32 104 11 6
19 15 20 228 20 l222 0 17 -30 c19 -33 51 -39 83 -16 17 12 62 270 150 852 3
25 8 44 11 42 3 -4 134 -846 134 -867 0 -6 11 -18 25 -27 32 -21 73 -11 85 21
l10 25 215 0 c173 0 215 -3 215 -13 0 -20 33 -47 56 -47 32 0 57 24 58 56 0
16 -3 152 -8 301 l-8 273 91 0 91 0 0 -298 c0 -277 1 -300 18 -315 23 -21 52
-22 78 -3 18 14 19 31 22 315 l3 301 202 -2 202 -3 5 -320 5 -319 26 -15 c24
-13 29 -13 51 1 34 22 38 64 38 391 l0 267 200 0 200 0 0 -295 c0 -282 1 -296
20 -315 25 -25 55 -25 80 0 19 19 20 33 20 315 l0 295 98 0 c83 0 102 3 115
18 10 10 17 27 17 36 0 10 -47 257 -105 550 -94 475 -105 543 -105 639 l0 107
81 0 c44 0 101 5 126 12 59 14 127 78 142 133 14 52 15 1012 1 1073 -15 61
-46 123 -86 170 l-34 40 30 30 c29 29 30 34 30 114 0 262 -54 766 -101 937
-103 378 -394 596 -759 566 -343 -28 -580 -218 -685 -548 -71 -223 -115 -827
-72 -972 10 -33 33 -78 50 -100 l31 -40 -48 43 c-83 76 -117 86 -302 90 l-161
4 53 54 c97 99 135 209 146 419 3 46 5 50 33 55 110 23 164 155 102 249 -22
33 -77 71 -105 71 -5 0 -12 59 -15 138 -7 192 -19 227 -116 323 -84 85 -147
121 -248 145 -94 22 -162 13 -279 -37 -92 -39 -102 -41 -166 -36 -40 4 -118
23 -190 47 -177 61 -195 47 -184 -145 8 -132 28 -235 56 -282 13 -22 20 -52
20 -83 l0 -48 -40 -7 c-46 -8 -94 -38 -124 -78 -29 -40 -29 -134 0 -174 33
-44 82 -73 125 -73 l39 0 0 -87 c1 -171 48 -302 145 -399 l52 -52 -176 -4
c-155 -3 -181 -6 -218 -24 l-42 -21 -43 28 c-63 43 -135 60 -279 68 l-128 6
35 53 c58 85 76 151 82 289 l5 121 34 7 c78 14 143 112 128 192 -8 43 -66 108
-108 122 l-32 11 -1 117 c0 91 -5 134 -22 189 -55 180 -209 319 -397 359 -85
18 -239 18 -321 0z m306 -116 c66 -15 140 -55 188 -102 43 -42 99 -124 90
-133 -3 -2 -21 3 -41 11 -30 12 -95 15 -377 15 -310 0 -344 -2 -390 -19 l-50
-19 27 49 c48 89 161 175 260 198 53 13 239 13 293 0z m237 -355 c38 -28 71
-79 79 -122 12 -63 20 -62 -462 -62 -480 0 -462 -3 -451 66 8 48 43 98 87 123
34 20 47 21 377 18 329 -2 343 -3 370 -23z m1133 -173 c69 -6 198 -13 288 -17
l163 -7 66 -99 65 -98 -4 -167 c-4 -144 -8 -176 -27 -225 -29 -75 -95 -146
-173 -189 l-63 -34 -160 0 c-157 0 -161 1 -218 29 -71 36 -140 108 -175 184
l-27 57 -3 301 -3 301 73 -13 c40 -7 129 -17 198 -23z m2084 -103 c50 -384 28
-536 -96 -658 -215 -212 -583 -129 -691 157 -20 51 -22 76 -20 213 0 92 7 177
15 210 l13 54 140 2 c196 2 395 47 543 124 31 16 62 29 68 30 6 0 18 -55 28
-132z m-2474 -68 c0 -54 -10 -61 -48 -34 -41 28 -21 83 31 84 14 0 17 -9 17
-50z m-1660 -5 c0 -40 -2 -45 -23 -45 -29 0 -47 18 -47 45 0 27 18 45 47 45
21 0 23 -5 23 -45z m968 -182 c-3 -223 -4 -229 -30 -285 -35 -75 -95 -138
-165 -174 -57 -29 -60 -29 -223 -29 -157 0 -168 1 -221 26 -79 37 -133 90
-171 167 l-33 66 -3 228 -3 228 426 0 426 0 -3 -227z m160 205 c25 -25 8 -78
-25 -78 -9 0 -13 15 -13 45 0 46 13 58 38 33z m1664 -14 c11 -23 10 -29 -11
-45 -30 -25 -35 -20 -26 30 8 47 20 52 37 15z m-2564 -806 c-13 -18 -48 -64
-76 -102 -56 -75 -63 -103 -32 -131 21 -19 50 -18 333 12 l57 6 0 -302 0 -301
-75 0 -74 0 -172 101 -173 102 -140 -17 c-78 -9 -156 -19 -173 -23 l-33 -5 0
241 c0 260 3 279 56 348 28 37 99 82 147 93 18 5 110 8 206 9 l173 1 -24 -32z
m1055 3 c37 -18 46 -28 41 -40 -42 -95 -43 -110 -44 -388 l0 -272 -77 -60 -78
-61 -247 0 -248 0 0 295 0 295 23 -5 c117 -28 255 -55 278 -55 15 0 35 7 43
16 17 17 21 64 7 79 -4 6 -34 59 -66 118 l-57 109 188 -4 c174 -3 193 -6 237
-27z m2332 -13 c77 -21 209 -20 273 3 18 6 35 10 37 8 2 -2 -43 -106 -99 -231
-99 -220 -103 -227 -116 -200 -43 93 -200 445 -200 449 0 3 8 2 18 -2 9 -4 49
-16 87 -27z m-3031 -10 c-10 -13 -20 -25 -21 -27 -4 -6 -32 31 -33 42 0 4 16
7 37 7 l36 0 -19 -22z m-161 -47 c21 -36 21 -37 -71 -45 l-62 -6 41 55 c46 61
54 61 92 -4z m394 -78 c-3 -2 -141 29 -146 33 -2 2 13 26 34 54 l38 51 37 -68
c21 -37 37 -69 37 -70z m1197 86 c19 -38 19 -50 8 -261 -6 -121 -13 -223 -15
-225 -2 -2 -50 7 -106 19 l-101 23 0 62 c0 53 -3 64 -22 77 -32 23 -54 20 -77
-10 -15 -19 -21 -41 -21 -75 l0 -49 -48 0 c-27 0 -90 3 -140 6 l-92 7 0 161
c0 203 14 241 105 289 25 13 70 16 260 16 l230 1 19 -41z m889 11 c20 -13 45
-41 56 -61 20 -35 21 -53 21 -351 l0 -315 -130 30 -130 31 0 163 c0 150 -2
165 -20 183 -11 11 -29 20 -40 20 -11 0 -29 -9 -40 -20 -18 -18 -20 -33 -20
-171 0 -117 -3 -150 -12 -146 -7 2 -39 10 -70 17 -40 9 -58 18 -59 29 0 9 -10
133 -22 277 l-22 261 20 42 20 42 206 -3 c200 -3 206 -4 242 -28z m1017 -726
l0 -186 -97 89 c-114 105 -127 113 -185 113 -56 0 -107 -26 -136 -70 -19 -29
-23 -45 -20 -93 3 -54 2 -57 -21 -57 -42 0 -100 -41 -122 -87 -18 -38 -20 -57
-17 -162 3 -129 11 -150 72 -195 26 -20 43 -21 277 -24 l249 -3 0 -64 0 -65
-435 0 -436 0 4 193 c3 128 11 240 26 337 15 104 21 190 21 303 l-1 157 411 0
410 0 0 -186z m-2192 151 c2 -2 -11 -49 -29 -104 l-33 -101 -133 0 -133 0 0
111 0 111 163 -7 c89 -4 164 -9 165 -10z m2822 -316 l0 -331 -29 -29 -29 -29
-514 0 c-386 0 -517 3 -526 12 -13 13 -17 173 -6 202 5 12 21 16 75 16 56 0
73 4 89 20 24 24 24 30 1 105 -21 68 -15 95 24 95 17 0 58 -33 140 -110 76
-73 123 -110 138 -110 12 0 98 5 191 10 207 12 206 12 206 116 0 52 7 96 25
147 13 41 28 106 31 146 l7 71 88 0 89 0 0 -331z m-2113 167 c293 -67 535
-125 537 -127 8 -8 -24 -234 -36 -257 -15 -28 -57 -52 -92 -52 -14 0 -202 56
-418 124 -216 68 -452 142 -525 165 l-131 41 40 121 c39 118 41 120 67 114 14
-3 266 -61 558 -129z m-2314 -43 l132 -78 -75 -8 c-41 -4 -169 -6 -285 -5
l-210 3 -3 63 c-2 34 1 62 5 63 4 0 66 9 138 19 72 9 138 18 148 19 10 0 77
-34 150 -76z m1184 -355 l22 -37 -123 -41 -122 -40 -677 2 -677 3 -27 27 c-25
26 -28 35 -31 126 l-4 99 243 6 c133 4 446 7 695 7 l453 0 88 66 c48 37 97 75
108 86 20 19 20 18 25 -124 4 -124 8 -148 27 -180z m348 212 c3 -5 59 -26 123
-46 64 -20 120 -39 125 -43 4 -4 -40 -26 -98 -49 -105 -42 -107 -42 -237 -42
-166 0 -168 1 -168 112 l0 78 124 0 c71 0 127 -4 131 -10z m793 -257 l342
-107 0 -148 0 -148 -632 2 -633 3 0 175 0 175 105 6 c102 5 111 7 280 76 96
40 180 72 185 73 6 0 164 -48 353 -107z m501 -467 c9 -10 29 -16 59 -16 l45 0
-6 -32 c-2 -18 -29 -187 -58 -376 -29 -188 -56 -334 -60 -325 -18 50 -28 1091
-11 1118 4 5 9 -71 12 -171 4 -133 9 -185 19 -198z m-1709 189 l0 -125 -742 2
-743 3 -3 103 -3 102 683 1 c638 0 686 2 733 19 79 29 75 35 75 -105z"/>
<path d="M2352 4257 c-28 -30 -28 -58 1 -85 29 -27 61 -28 87 -2 27 27 25 62
-3 88 -30 28 -58 28 -85 -1z"/>
<path d="M2830 4250 c-11 -11 -20 -29 -20 -40 0 -25 42 -70 65 -70 23 0 65 45
65 70 0 28 -35 60 -65 60 -14 0 -34 -9 -45 -20z"/>
<path d="M2477 3912 c-29 -32 -21 -67 24 -105 87 -75 217 -75 300 0 43 39 50
70 21 96 -26 24 -55 21 -98 -8 -56 -38 -121 -32 -167 16 -23 24 -59 24 -80 1z"/>
<path d="M3886 4218 c-9 -12 -16 -29 -16 -38 0 -9 7 -26 16 -38 23 -34 83 -27
104 11 13 24 13 30 0 55 -21 37 -81 44 -104 10z"/>
<path d="M4376 4219 c-15 -12 -26 -30 -26 -45 0 -31 33 -64 65 -64 30 0 65 32
65 60 0 24 -42 70 -63 70 -8 0 -26 -9 -41 -21z"/>
<path d="M4014 3894 c-26 -38 -1 -81 66 -118 91 -50 199 -37 273 32 34 32 36
75 5 96 -30 21 -51 20 -73 -4 -43 -47 -137 -48 -180 0 -26 29 -71 26 -91 -6z"/>
<path d="M706 4218 c-33 -47 -5 -100 51 -100 30 0 63 33 63 63 0 52 -85 79
-114 37z"/>
<path d="M1220 4232 c-78 -25 -60 -128 21 -120 47 4 71 46 49 84 -16 29 -46
44 -70 36z"/>
<path d="M806 3904 c-35 -34 -9 -90 59 -130 84 -49 197 -42 269 18 41 33 48
74 18 101 -25 23 -54 21 -88 -5 -43 -35 -123 -32 -161 5 -33 30 -73 35 -97 11z"/>
<path d="M470 3030 c-25 -25 -26 -62 -2 -83 16 -15 45 -17 194 -17 157 0 177
2 191 18 24 26 21 68 -5 86 -18 13 -55 16 -190 16 -155 0 -170 -2 -188 -20z"/>
<path d="M908 1403 c-11 -13 -42 -197 -107 -648 -50 -347 -91 -638 -91 -647 0
-47 78 -66 103 -25 8 12 40 203 71 427 32 223 60 414 64 425 3 11 36 -178 73
-419 71 -468 71 -466 126 -466 13 0 29 10 39 25 16 24 12 56 -80 663 -59 382
-103 646 -112 660 -18 27 -64 30 -86 5z"/>
</g>
</svg>
